<svg width="24" height="24" viewBox="0 0 24 24" fill="none" xmlns="http://www.w3.org/2000/svg">
<rect width="24" height="24" fill="white"/>
<path d="M9.094 21.006C8.4652 20.972 7.87348 20.6978 7.441 20.24C6.9236 19.7423 6.46188 19.1897 6.064 18.592C5.44248 17.702 4.95119 16.7279 4.605 15.699C4.21321 14.5922 4.00709 13.4281 3.995 12.254C3.96456 11.102 4.24986 9.96356 4.82 8.96202C5.23758 8.24012 5.83319 7.63728 6.55 7.21102C7.25889 6.78659 8.06782 6.55813 8.894 6.54902C9.51682 6.58587 10.1289 6.72823 10.704 6.97002C11.163 7.17202 11.645 7.31402 12.14 7.39202C12.686 7.27764 13.2196 7.11018 13.733 6.89202C14.3407 6.65476 14.9841 6.52188 15.636 6.49902C15.723 6.49902 15.809 6.49902 15.892 6.50902C17.322 6.55002 18.652 7.25202 19.492 8.40902C18.8364 8.75965 18.2909 9.28521 17.9161 9.92728C17.5414 10.5693 17.352 11.3028 17.369 12.046C17.3625 12.6144 17.4765 13.1776 17.7035 13.6987C17.9305 14.2198 18.2653 14.6868 18.686 15.069C19.069 15.4338 19.5148 15.7262 20.002 15.932C19.902 16.232 19.787 16.522 19.665 16.814C19.388 17.4593 19.0463 18.0748 18.645 18.651C18.2656 19.2283 17.8239 19.7622 17.328 20.243C16.8756 20.6919 16.2726 20.9567 15.636 20.986C15.0964 20.9621 14.5662 20.8355 14.074 20.613C13.5432 20.3818 12.9728 20.2551 12.394 20.24C11.7989 20.2518 11.2116 20.3777 10.664 20.611C10.191 20.8244 9.68575 20.9572 9.169 21.004L9.094 21.006ZM12.244 6.49902C12.169 6.49902 12.094 6.49902 12.019 6.49002C12.0032 6.37099 11.9949 6.25109 11.994 6.13102C12.0267 5.13216 12.4171 4.17826 13.094 3.44302C13.4726 3.02048 13.9315 2.67749 14.444 2.43402C14.9216 2.18818 15.4435 2.04028 15.979 1.99902C15.994 2.13002 15.994 2.25802 15.994 2.38002C15.9799 3.36319 15.6105 4.30805 14.954 5.04002C14.6361 5.46624 14.2288 5.81772 13.7606 6.06977C13.2925 6.32182 12.7748 6.46833 12.244 6.49902Z" fill="#191D2B"/>
</svg>
