<svg width="16" height="16" viewBox="0 0 16 16" fill="none" xmlns="http://www.w3.org/2000/svg">
<path d="M7.99998 1.33331C4.32665 1.33331 1.33331 4.32665 1.33331 7.99998C1.33331 11.6733 4.32665 14.6666 7.99998 14.6666C11.6733 14.6666 14.6666 11.6733 14.6666 7.99998C14.6666 4.32665 11.6733 1.33331 7.99998 1.33331ZM10.9 10.38C10.8066 10.54 10.64 10.6266 10.4666 10.6266C10.38 10.6266 10.2933 10.6066 10.2133 10.5533L8.14665 9.31998C7.63331 9.01331 7.25331 8.33998 7.25331 7.74665V5.01331C7.25331 4.73998 7.47998 4.51331 7.75331 4.51331C8.02665 4.51331 8.25331 4.73998 8.25331 5.01331V7.74665C8.25331 7.98665 8.45331 8.33998 8.65998 8.45998L10.7266 9.69331C10.9666 9.83331 11.0466 10.14 10.9 10.38Z" fill="white"/>
</svg>
