<svg width="16" height="16" viewBox="0 0 16 16" fill="none" xmlns="http://www.w3.org/2000/svg">
<path d="M7.99998 1.33331C4.32665 1.33331 1.33331 4.32665 1.33331 7.99998C1.33331 11.6733 4.32665 14.6666 7.99998 14.6666C11.6733 14.6666 14.6666 11.6733 14.6666 7.99998C14.6666 4.32665 11.6733 1.33331 7.99998 1.33331ZM10.24 9.53331C10.4333 9.72665 10.4333 10.0466 10.24 10.24C10.14 10.34 10.0133 10.3866 9.88665 10.3866C9.75998 10.3866 9.63331 10.34 9.53331 10.24L7.99998 8.70665L6.46665 10.24C6.36665 10.34 6.23998 10.3866 6.11331 10.3866C5.98665 10.3866 5.85998 10.34 5.75998 10.24C5.56665 10.0466 5.56665 9.72665 5.75998 9.53331L7.29331 7.99998L5.75998 6.46665C5.56665 6.27331 5.56665 5.95331 5.75998 5.75998C5.95331 5.56665 6.27331 5.56665 6.46665 5.75998L7.99998 7.29331L9.53331 5.75998C9.72665 5.56665 10.0466 5.56665 10.24 5.75998C10.4333 5.95331 10.4333 6.27331 10.24 6.46665L8.70665 7.99998L10.24 9.53331Z" fill="white"/>
</svg>
