<svg width="24" height="24" viewBox="0 0 24 24" fill="none" xmlns="http://www.w3.org/2000/svg">
<path d="M21.8059 10.0416H21.0004V10.0001H12.0004V14.0001H17.6519C16.8274 16.3286 14.6119 18.0001 12.0004 18.0001C8.68687 18.0001 6.00037 15.3136 6.00037 12.0001C6.00037 8.68662 8.68687 6.00012 12.0004 6.00012C13.5299 6.00012 14.9214 6.57712 15.9809 7.51962L18.8094 4.69112C17.0234 3.02662 14.6344 2.00012 12.0004 2.00012C6.47787 2.00012 2.00037 6.47762 2.00037 12.0001C2.00037 17.5226 6.47787 22.0001 12.0004 22.0001C17.5229 22.0001 22.0004 17.5226 22.0004 12.0001C22.0004 11.3296 21.9314 10.6751 21.8059 10.0416Z" fill="#FFC107"/>
<path d="M3.15356 7.34562L6.43906 9.75512C7.32806 7.55412 9.48106 6.00012 12.0006 6.00012C13.5301 6.00012 14.9216 6.57712 15.9811 7.51962L18.8096 4.69112C17.0236 3.02662 14.6346 2.00012 12.0006 2.00012C8.15956 2.00012 4.82856 4.16862 3.15356 7.34562Z" fill="#FF3D00"/>
<path d="M11.9998 22C14.5828 22 16.9298 21.0115 18.7043 19.404L15.6093 16.785C14.5716 17.5742 13.3035 18.0011 11.9998 18C9.39879 18 7.19029 16.3415 6.35829 14.027L3.09729 16.5395C4.75229 19.778 8.11329 22 11.9998 22Z" fill="#4CAF50"/>
<path d="M21.8055 10.0415H21V10H12V14H17.6515C17.2571 15.1082 16.5467 16.0766 15.608 16.7855L15.6095 16.7845L18.7045 19.4035C18.4855 19.6025 22 17 22 12C22 11.3295 21.931 10.675 21.8055 10.0415Z" fill="#1976D2"/>
</svg>
