<svg width="16" height="16" viewBox="0 0 16 16" fill="none" xmlns="http://www.w3.org/2000/svg">
<path fill-rule="evenodd" clip-rule="evenodd" d="M8.00001 14.6667C4.32001 14.6667 1.33334 11.6867 1.33334 8.00004C1.33334 4.32004 4.32001 1.33337 8.00001 1.33337C11.6867 1.33337 14.6667 4.32004 14.6667 8.00004C14.6667 11.6867 11.6867 14.6667 8.00001 14.6667ZM10.1267 10.4734C10.2067 10.52 10.2933 10.5467 10.3867 10.5467C10.5533 10.5467 10.72 10.46 10.8133 10.3C10.9533 10.0667 10.88 9.76004 10.64 9.61337L8.26668 8.20004V5.12004C8.26668 4.84004 8.04001 4.62004 7.76668 4.62004C7.49334 4.62004 7.26668 4.84004 7.26668 5.12004V8.48671C7.26668 8.66004 7.36001 8.82004 7.51334 8.91337L10.1267 10.4734Z" fill="#96A0B5"/>
</svg>
